# xmcd
#
# Track frame offsets: 
#        183
#        12625
#        25293
#        38605
#        51783
#        64370
#        75998
#        90188
#        103285
#        115078
#        126900
#        138025
#        150608
#        160840
#        171430
#        181983
#
# Disc length: 2580 seconds
#
# Revision: 3
# Processed by: cddbd v1.5.2PL0 Copyright (c) Steve Scherf et al.
# Submitted via: ExactAudioCopy v1.1
#
DISCID=c80a1210
DTITLE=Little Esther - Bad Bad Girl
DYEAR=1987
DGENRE=R&B
TTITLE0=Looking For A Man
TTITLE1=The Deacon Moves In
TTITLE2=I'm A Bad Bad Girl
TTITLE3=Ring-A-Ding Doo
TTITLE4=Aged And Mellow Blues
TTITLE5=Ramblin' Blues
TTITLE6=The Storm
TTITLE7=Hollerin' And Screamin'
TTITLE8=Mainliner
TTITLE9=Saturday Night Daddy
TTITLE10=You Took My Love Too Fast
TTITLE11=Last Laugh Blues
TTITLE12=Flesh, Blood And Bones
TTITLE13=Turn The Lamps Down Low
TTITLE14=Cherry Wine
TTITLE15=Hound Dog
EXTD=
EXTT0=
EXTT1=
EXTT2=
EXTT3=
EXTT4=
EXTT5=
EXTT6=
EXTT7=
EXTT8=
EXTT9=
EXTT10=
EXTT11=
EXTT12=
EXTT13=
EXTT14=
EXTT15=
PLAYORDER=
